{
  "accessors": [
    {
      "bufferView": 2,
      "componentType": 5126,
      "count": 1344,
      "max": [
        91.068771362304688,
        -5.682225227355957,
        0.37650901079177856
      ],
      "min": [
        76.189308166503906,
        -5.8124651908874512,
        0.27247101068496704
      ],
      "type": "VEC3"
    },
    {
      "bufferView": 2,
      "byteOffset": 16128,
      "componentType": 5126,
      "count": 1344,
      "max": [
        1,
        1,
        1
      ],
      "min": [
        -1,
        -1,
        -1
      ],
      "type": "VEC3"
    },
    {
      "bufferView": 1,
      "componentType": 5126,
      "count": 1344,
      "max": [
        0.013158000074326992,
        1
      ],
      "min": [
        0,
        0
      ],
      "type": "VEC2"
    },
    {
      "bufferView": 0,
      "componentType": 5125,
      "count": 1848,
      "max": [
        1343
      ],
      "min": [
        0
      ],
      "type": "SCALAR"
    },
    {
      "bufferView": 2,
      "byteOffset": 32256,
      "componentType": 5126,
      "count": 10662,
      "max": [
        91.237091064453125,
        9.2871017456054688,
        11.839559555053711
      ],
      "min": [
        75.998046875,
        -1.4320529699325562,
        0.26621100306510925
      ],
      "type": "VEC3"
    },
    {
      "bufferView": 2,
      "byteOffset": 160200,
      "componentType": 5126,
      "count": 10662,
      "max": [
        1,
        1,
        1
      ],
      "min": [
        -1,
        -1,
        -1
      ],
      "type": "VEC3"
    },
    {
      "bufferView": 1,
      "byteOffset": 10752,
      "componentType": 5126,
      "count": 10662,
      "max": [
        0.99972397089004517,
        0.99311697483062744
      ],
      "min": [
        0.00027600000612437725,
        0.00027600000612437725
      ],
      "type": "VEC2"
    },
    {
      "bufferView": 0,
      "byteOffset": 7392,
      "componentType": 5125,
      "count": 21723,
      "max": [
        10661
      ],
      "min": [
        0
      ],
      "type": "SCALAR"
    },
    {
      "bufferView": 2,
      "byteOffset": 288144,
      "componentType": 5126,
      "count": 14548,
      "max": [
        79.556671142578125,
        -5.3027758598327637,
        5.6574621200561523
      ],
      "min": [
        79.234115600585938,
        -7.1576509475708008,
        0.22026699781417847
      ],
      "type": "VEC3"
    },
    {
      "bufferView": 2,
      "byteOffset": 462720,
      "componentType": 5126,
      "count": 14548,
      "max": [
        1,
        1,
        1
      ],
      "min": [
        -1,
        -1,
        -1
      ],
      "type": "VEC3"
    },
    {
      "bufferView": 1,
      "byteOffset": 96048,
      "componentType": 5126,
      "count": 14548,
      "max": [
        1,
        1
      ],
      "min": [
        0,
        0
      ],
      "type": "VEC2"
    },
    {
      "bufferView": 0,
      "byteOffset": 94284,
      "componentType": 5125,
      "count": 79488,
      "max": [
        14547
      ],
      "min": [
        0
      ],
      "type": "SCALAR"
    },
    {
      "bufferView": 2,
      "byteOffset": 637296,
      "componentType": 5126,
      "count": 14548,
      "max": [
        87.736114501953125,
        -5.3027758598327637,
        5.6574621200561523
      ],
      "min": [
        87.413558959960938,
        -7.1576509475708008,
        0.22026699781417847
      ],
      "type": "VEC3"
    },
    {
      "bufferView": 2,
      "byteOffset": 811872,
      "componentType": 5126,
      "count": 14548,
      "max": [
        1,
        1,
        1
      ],
      "min": [
        -1,
        -1,
        -1
      ],
      "type": "VEC3"
    },
    {
      "bufferView": 1,
      "byteOffset": 212432,
      "componentType": 5126,
      "count": 14548,
      "max": [
        1,
        1
      ],
      "min": [
        0,
        0
      ],
      "type": "VEC2"
    },
    {
      "bufferView": 0,
      "byteOffset": 412236,
      "componentType": 5125,
      "count": 79488,
      "max": [
        14547
      ],
      "min": [
        0
      ],
      "type": "SCALAR"
    },
    {
      "bufferView": 2,
      "byteOffset": 986448,
      "componentType": 5126,
      "count": 2958,
      "max": [
        87.701766967773438,
        0.67410802841186523,
        8.6394233703613281
      ],
      "min": [
        79.268463134765625,
        -7.1550512313842773,
        1.0945999622344971
      ],
      "type": "VEC3"
    },
    {
      "bufferView": 2,
      "byteOffset": 1021944,
      "componentType": 5126,
      "count": 2958,
      "max": [
        0.99980932474136353,
        0.99775278568267822,
        0.050401467829942703
      ],
      "min": [
        -0.99981170892715454,
        -1,
        -0.99999165534973145
      ],
      "type": "VEC3"
    },
    {
      "bufferView": 1,
      "byteOffset": 328816,
      "componentType": 5126,
      "count": 2958,
      "max": [
        0.92387300729751587,
        0.94690799713134766
      ],
      "min": [
        0.125,
        0.52671700716018677
      ],
      "type": "VEC2"
    },
    {
      "bufferView": 0,
      "byteOffset": 730188,
      "componentType": 5125,
      "count": 14706,
      "max": [
        2957
      ],
      "min": [
        0
      ],
      "type": "SCALAR"
    },
    {
      "bufferView": 2,
      "byteOffset": 1057440,
      "componentType": 5126,
      "count": 25,
      "max": [
        91.016304016113281,
        9.2294979095458984,
        0.24096499383449554
      ],
      "min": [
        76.204551696777344,
        -9.2672014236450195,
        0.23867599666118622
      ],
      "type": "VEC3"
    },
    {
      "bufferView": 2,
      "byteOffset": 1057740,
      "componentType": 5126,
      "count": 25,
      "max": [
        0,
        -0,
        1
      ],
      "min": [
        0,
        -0,
        1
      ],
      "type": "VEC3"
    },
    {
      "bufferView": 1,
      "byteOffset": 352480,
      "componentType": 5126,
      "count": 25,
      "max": [
        1,
        1
      ],
      "min": [
        0,
        0
      ],
      "type": "VEC2"
    },
    {
      "bufferView": 0,
      "byteOffset": 789012,
      "componentType": 5125,
      "count": 54,
      "max": [
        24
      ],
      "min": [
        0
      ],
      "type": "SCALAR"
    },
    {
      "bufferView": 2,
      "byteOffset": 1058040,
      "componentType": 5126,
      "count": 4704,
      "max": [
        84.316917419433594,
        -3.7666370868682861,
        1.1455299854278564
      ],
      "min": [
        80.140121459960938,
        -6.7911767959594727,
        0.24582299590110779
      ],
      "type": "VEC3"
    },
    {
      "bufferView": 2,
      "byteOffset": 1114488,
      "componentType": 5126,
      "count": 4704,
      "max": [
        0.99977380037307739,
        0.99998068809509277,
        0.99820250272750854
      ],
      "min": [
        -0.99997895956039429,
        -0.99988895654678345,
        -0.99985301494598389
      ],
      "type": "VEC3"
    },
    {
      "bufferView": 1,
      "byteOffset": 352680,
      "componentType": 5126,
      "count": 4704,
      "max": [
        0.99491798877716064,
        0.98941200971603394
      ],
      "min": [
        0.0055019999854266644,
        0.01309600006788969
      ],
      "type": "VEC2"
    },
    {
      "bufferView": 0,
      "byteOffset": 789228,
      "componentType": 5125,
      "count": 15396,
      "max": [
        4703
      ],
      "min": [
        0
      ],
      "type": "SCALAR"
    },
    {
      "bufferView": 2,
      "byteOffset": 1170936,
      "componentType": 5126,
      "count": 5723,
      "max": [
        87.330192565917969,
        0.43232598900794983,
        1.7416650056838989
      ],
      "min": [
        83.957359313964844,
        -3.0612249374389648,
        0.24202699959278107
      ],
      "type": "VEC3"
    },
    {
      "bufferView": 2,
      "byteOffset": 1239612,
      "componentType": 5126,
      "count": 5723,
      "max": [
        0.99941229820251465,
        0.99980407953262329,
        0.9997212290763855
      ],
      "min": [
        -0.99991357326507568,
        -0.99943482875823975,
        -0.99997591972351074
      ],
      "type": "VEC3"
    },
    {
      "bufferView": 1,
      "byteOffset": 390312,
      "componentType": 5126,
      "count": 5723,
      "max": [
        0.99572098255157471,
        0.9952080249786377
      ],
      "min": [
        0.0036629999522119761,
        0.0041669998317956924
      ],
      "type": "VEC2"
    },
    {
      "bufferView": 0,
      "byteOffset": 850812,
      "componentType": 5125,
      "count": 25032,
      "max": [
        5722
      ],
      "min": [
        0
      ],
      "type": "SCALAR"
    }
  ],
  "asset": {
    "extras": {
      "author": "hellotaia (https://sketchfab.com/hellotaia)",
      "license": "CC-BY-4.0 (http://creativecommons.org/licenses/by/4.0/)",
      "source": "https://sketchfab.com/3d-models/cinema-building-d446658d7bb645a2a80afe11f35a947d",
      "title": "cinema building"
    },
    "generator": "Sketchfab-9.34.0",
    "version": "2.0"
  },
  "bufferViews": [
    {
      "buffer": 0,
      "byteLength": 950940,
      "byteOffset": 0,
      "name": "floatBufferViews",
      "target": 34963
    },
    {
      "buffer": 0,
      "byteLength": 436096,
      "byteOffset": 950940,
      "byteStride": 8,
      "name": "floatBufferViews",
      "target": 34962
    },
    {
      "buffer": 0,
      "byteLength": 1308288,
      "byteOffset": 1387036,
      "byteStride": 12,
      "name": "floatBufferViews",
      "target": 34962
    }
  ],
  "buffers": [
    {
      "byteLength": 2695324,
      "uri": "scene.bin"
    }
  ],
  "extensionsRequired": [
    "KHR_materials_pbrSpecularGlossiness"
  ],
  "extensionsUsed": [
    "KHR_materials_pbrSpecularGlossiness"
  ],
  "materials": [
    {
      "doubleSided": true,
      "extensions": {
        "KHR_materials_pbrSpecularGlossiness": {
          "diffuseFactor": [
            1,
            1,
            1,
            1
          ],
          "glossinessFactor": 0,
          "specularFactor": [
            1,
            1,
            1
          ]
        }
      },
      "name": "Material"
    },
    {
      "doubleSided": true,
      "extensions": {
        "KHR_materials_pbrSpecularGlossiness": {
          "diffuseFactor": [
            0.42732217013540547,
            0.42732217013540547,
            0.42732217013540547,
            1
          ],
          "glossinessFactor": 0,
          "specularFactor": [
            0,
            0,
            0
          ]
        }
      },
      "name": "None"
    },
    {
      "doubleSided": true,
      "emissiveFactor": [
        0.91808322523270069,
        1,
        1
      ],
      "extensions": {
        "KHR_materials_pbrSpecularGlossiness": {
          "diffuseFactor": [
            1,
            1,
            1,
            1
          ],
          "glossinessFactor": 0.40000000000000002,
          "specularFactor": [
            0,
            0,
            0
          ]
        }
      },
      "name": "emission"
    },
    {
      "doubleSided": true,
      "extensions": {
        "KHR_materials_pbrSpecularGlossiness": {
          "diffuseFactor": [
            0.038191087682177188,
            0.038191087682177188,
            0.038191087682177188,
            1
          ],
          "glossinessFactor": 1,
          "specularFactor": [
            0.91373602320194081,
            0.91373602320194081,
            0.91373602320194081
          ]
        }
      },
      "name": "human"
    }
  ],
  "meshes": [
    {
      "primitives": [
        {
          "attributes": {
            "NORMAL": 1,
            "POSITION": 0,
            "TEXCOORD_0": 2
          },
          "indices": 3,
          "material": 0,
          "mode": 4
        }
      ]
    },
    {
      "primitives": [
        {
          "attributes": {
            "NORMAL": 5,
            "POSITION": 4,
            "TEXCOORD_0": 6
          },
          "indices": 7,
          "material": 0,
          "mode": 4
        }
      ]
    },
    {
      "primitives": [
        {
          "attributes": {
            "NORMAL": 9,
            "POSITION": 8,
            "TEXCOORD_0": 10
          },
          "indices": 11,
          "material": 0,
          "mode": 4
        }
      ]
    },
    {
      "primitives": [
        {
          "attributes": {
            "NORMAL": 13,
            "POSITION": 12,
            "TEXCOORD_0": 14
          },
          "indices": 15,
          "material": 0,
          "mode": 4
        }
      ]
    },
    {
      "primitives": [
        {
          "attributes": {
            "NORMAL": 17,
            "POSITION": 16,
            "TEXCOORD_0": 18
          },
          "indices": 19,
          "material": 2,
          "mode": 4
        }
      ]
    },
    {
      "primitives": [
        {
          "attributes": {
            "NORMAL": 21,
            "POSITION": 20,
            "TEXCOORD_0": 22
          },
          "indices": 23,
          "material": 1,
          "mode": 4
        }
      ]
    },
    {
      "primitives": [
        {
          "attributes": {
            "NORMAL": 25,
            "POSITION": 24,
            "TEXCOORD_0": 26
          },
          "indices": 27,
          "material": 3,
          "mode": 4
        }
      ]
    },
    {
      "primitives": [
        {
          "attributes": {
            "NORMAL": 29,
            "POSITION": 28,
            "TEXCOORD_0": 30
          },
          "indices": 31,
          "material": 3,
          "mode": 4
        }
      ]
    }
  ],
  "nodes": [
    {
      "children": [
        1
      ],
      "name": "RootNode (gltf orientation matrix)",
      "rotation": [
        -0.70710678118654746,
        -0,
        -0,
        0.70710678118654757
      ]
    },
    {
      "children": [
        2
      ],
      "name": "RootNode (model correction matrix)"
    },
    {
      "children": [
        3,
        4,
        5,
        6,
        7,
        8,
        9,
        10
      ],
      "name": "cinema2d.obj.cleaner.materialmerger.gles"
    },
    {
      "mesh": 0,
      "name": ""
    },
    {
      "mesh": 1,
      "name": ""
    },
    {
      "mesh": 2,
      "name": ""
    },
    {
      "mesh": 3,
      "name": ""
    },
    {
      "mesh": 4,
      "name": ""
    },
    {
      "mesh": 5,
      "name": ""
    },
    {
      "mesh": 6,
      "name": ""
    },
    {
      "mesh": 7,
      "name": ""
    }
  ],
  "scene": 0,
  "scenes": [
    {
      "name": "OSG_Scene",
      "nodes": [
        0
      ]
    }
  ]
}

